<svg aria-hidden="true" style="position: absolute; width: 0; height: 0; overflow: hidden;" version="1.1" xmlns="http://www.w3.org/2000/svg" xmlns:xlink="http://www.w3.org/1999/xlink">
    <defs>
        <symbol id="icon-close-button" viewBox="0 0 32 32">
            <path stroke-linejoin="miter" stroke-linecap="round" stroke-miterlimit="4" stroke-width="3.5556" d="M1.778 1.778l14.222 14.222 14.222-14.222M1.778 30.222l14.222-14.222 14.222 14.222"></path>
        </symbol>
        <symbol id="icon-background-path" viewBox="0 0 31 32">
            <path d="M21.572 28.412c-3.638 1.758-7.087 3.921-11.11 3.544-4.196-0.394-7.906-2.531-10.796-5.597-3.294-3.493-6.329-7.604-6.175-12.403 0.167-5.202 2.39-10.874 7.001-13.289 4.335-2.27 9.048 1.947 13.926 2.332 5.514 0.435 11.608-3.386 15.962 0.024 4.788 3.75 7.387 10.955 5.393 16.701-1.891 5.45-9.007 6.178-14.202 8.688z"></path>
        </symbol>
        <symbol id="icon-whyus2" viewBox="0 0 40 32">
            <path d="M12.338 10.244h-12.511c-0.385 0-0.696 0.297-0.696 0.666v4.001c0 0.369 0.311 0.667 0.696 0.667h0.695v15.338c0 0.369 0.311 0.667 0.696 0.667h9.73c0.384 0 0.696-0.298 0.696-0.667v-15.338h0.695c0.384 0 0.695-0.298 0.695-0.667v-4c0-0.37-0.311-0.668-0.695-0.668zM4.692 22.915v-1.334h4.17v-1.334h-4.17v-1.334h5.56v8.669h-5.559v-3.334h1.39v-1.334h-1.391zM10.252 17.579h-6.255c-0.384 0-0.695 0.298-0.695 0.667v10.003c0 0.369 0.311 0.667 0.695 0.667h6.256v1.334h-8.341v-14.672h8.341v2zM11.643 14.245h-11.123v-2.668h11.123v2.668zM21.548 10.368v-4.876c0-0.379-0.311-0.686-0.696-0.686h-0.695v-3.432h1.39v-1.374h-7.646v1.373h4.865v3.433h-0.696c-0.001 0-0.003-0-0.005-0-0.38 0-0.688 0.307-0.69 0.687v4.876c-1.584 0.319-2.78 1.705-2.78 3.363v17.165c0 0.38 0.311 0.687 0.696 0.687h8.341c0.001 0 0.003 0 0.005 0 0.38 0 0.688-0.307 0.69-0.687v-17.164c0-1.657-1.195-3.044-2.78-3.364zM18.768 6.18h1.39v4.12h-1.39v-4.12zM18.072 11.673h2.78c1.15 0 2.085 0.924 2.085 2.059v0.687h-6.95v-0.687c0-1.136 0.936-2.059 2.085-2.059zM22.939 27.465h-6.951v-1.373h2.78v-1.373h-2.78v-8.926h6.95v11.673zM15.987 30.211v-1.374h6.95v1.374h-6.95zM39.317 9.39h-11.73c-0.361 0.006-0.651 0.3-0.651 0.662 0 0.004 0 0.007 0 0.011v-0.001 20.849c0 0.372 0.292 0.673 0.651 0.673h11.73c0.36 0 0.651-0.301 0.651-0.673v-20.849c0-0.003 0-0.007 0-0.010 0-0.362-0.29-0.656-0.651-0.662h-0.001zM38.664 30.239h-10.426v-19.504h10.426v19.503z"></path>
            <path d="M9.558 23.048h-1.738v0.854h1.738v-0.854zM21.722 24.756h-1.738v1.706h1.738v-1.706zM19.55 23.048c1.676 0 3.040-1.34 3.040-2.988s-1.364-2.988-3.040-2.988c-1.677 0-3.041 1.339-3.041 2.988s1.364 2.988 3.040 2.988zM19.55 18.567c0.838 0 1.52 0.669 1.52 1.494s-0.682 1.494-1.521 1.494c-0.838 0-1.52-0.67-1.52-1.494s0.681-1.494 1.52-1.494zM31.822 16.218h3.258c1.258 0 2.282-0.956 2.282-2.134s-1.023-2.134-2.282-2.134h-3.258c-1.258 0-2.281 0.957-2.281 2.135s1.023 2.134 2.281 2.134zM36.058 14.085c0 0.505-0.439 0.915-0.978 0.915h-0.977v-1.829h0.977c0.539 0 0.978 0.41 0.978 0.914zM31.822 13.171h0.977v1.829h-0.977c-0.539 0-0.978-0.41-0.978-0.915s0.439-0.914 0.978-0.914zM31.822 23.048h3.258c1.258 0 2.282-1.148 2.282-2.56s-1.023-2.562-2.282-2.562h-3.258c-1.258 0-2.281 1.148-2.281 2.561s1.023 2.56 2.281 2.56zM36.058 20.488c0 0.604-0.439 1.097-0.978 1.097h-0.977v-2.194h0.977c0.539 0 0.978 0.492 0.978 1.098zM31.822 19.39h0.977v2.195h-0.977c-0.539 0-0.978-0.492-0.978-1.098s0.439-1.098 0.978-1.098zM31.822 29.023h3.258c1.258 0 2.282-1.148 2.282-2.56s-1.023-2.561-2.282-2.561h-3.258c-1.258 0-2.281 1.148-2.281 2.56s1.023 2.561 2.281 2.561zM36.058 26.463c0 0.604-0.439 1.097-0.978 1.097h-0.977v-2.194h0.977c0.539 0 0.978 0.492 0.978 1.097zM31.822 25.366h0.977v2.194h-0.977c-0.539 0-0.978-0.492-0.978-1.098s0.439-1.097 0.978-1.097z"></path>
        </symbol>
        <symbol id="icon-whyus1" viewBox="0 0 29 32">
            <path d="M14.348 0c-1.146 0-2.216 0.522-3.128 1.376s-1.692 2.044-2.342 3.486c-0.137 0.302-0.267 0.615-0.392 0.94-0.238-0.042-0.584-0.088-0.933-0.125l-0.078-0.007c-0.329-0.036-0.728-0.062-1.131-0.072l-0.020-0c-1.119-0.026-2.143 0.087-3.040 0.359-1.196 0.362-2.182 1.029-2.755 2.021s-0.656 2.179-0.372 3.397c0.284 1.216 0.925 2.488 1.848 3.772 0.193 0.269 0.4 0.54 0.618 0.81-0.213 0.263-0.419 0.533-0.618 0.808-0.923 1.285-1.563 2.555-1.848 3.772s-0.2 2.405 0.372 3.397c0.573 0.992 1.56 1.658 2.755 2.021s2.617 0.444 4.191 0.287c0.33-0.033 0.667-0.077 1.010-0.131 0.122 0.317 0.252 0.631 0.393 0.941 0.65 1.442 1.431 2.632 2.342 3.486s1.983 1.376 3.128 1.376c1.146 0 2.216-0.522 3.128-1.376s1.693-2.044 2.344-3.486c0.139-0.31 0.27-0.623 0.391-0.941 0.343 0.054 0.679 0.097 1.009 0.131 1.574 0.157 2.995 0.076 4.191-0.287s2.182-1.029 2.755-2.021 0.656-2.18 0.372-3.397c-0.284-1.216-0.924-2.488-1.848-3.772-0.198-0.275-0.404-0.545-0.618-0.808 0.215-0.264 0.421-0.535 0.62-0.81 0.922-1.285 1.563-2.556 1.847-3.773s0.201-2.404-0.372-3.397c-0.572-0.991-1.56-1.658-2.755-2.020-0.897-0.272-1.92-0.386-3.040-0.359-0.373 0.009-0.757 0.033-1.151 0.072-0.33 0.033-0.667 0.077-1.010 0.131-0.166-0.437-0.298-0.747-0.438-1.052l0.046 0.113c-0.65-1.442-1.432-2.632-2.343-3.486s-1.982-1.376-3.128-1.376zM14.348 1.274c0.764 0 1.513 0.336 2.256 1.031s1.453 1.749 2.053 3.081c0.097 0.217 0.191 0.436 0.279 0.658-1.461 0.324-3.008 0.823-4.588 1.488-1.581-0.666-3.128-1.164-4.588-1.488 0.090-0.226 0.183-0.445 0.279-0.658 0.601-1.331 1.31-2.384 2.053-3.081s1.491-1.031 2.256-1.031zM5.921 6.87c0.019-0 0.041-0 0.063-0 0.481 0 0.956 0.025 1.423 0.073l-0.059-0.005c0.233 0.023 0.47 0.052 0.711 0.087-0.449 1.427-0.791 3.016-1.005 4.718-1.368 1.037-2.572 2.127-3.583 3.23-0.148-0.187-0.292-0.378-0.431-0.571-0.853-1.186-1.41-2.327-1.641-3.318s-0.148-1.808 0.234-2.47c0.383-0.662 1.047-1.143 2.022-1.438 0.639-0.194 1.404-0.298 2.266-0.306zM22.776 6.87c0.861 0.007 1.626 0.112 2.266 0.306 0.975 0.296 1.64 0.777 2.022 1.439 0.381 0.662 0.466 1.478 0.234 2.47s-0.789 2.133-1.641 3.318c-0.14 0.194-0.284 0.384-0.431 0.571-1.011-1.102-2.216-2.192-3.582-3.23-0.215-1.702-0.556-3.291-1.006-4.718 0.241-0.035 0.478-0.065 0.71-0.087 0.41-0.044 0.885-0.069 1.367-0.069 0.022 0 0.044 0 0.065 0h-0.003zM19.372 7.255c0.318 0.954 0.606 2.118 0.809 3.311l0.020 0.146c-1.203-0.826-2.591-1.64-4.036-2.356l-0.202-0.091c1.181-0.44 2.328-0.778 3.409-1.011zM9.326 7.255c1.336 0.296 2.476 0.644 3.577 1.068l-0.169-0.057c-1.647 0.807-3.035 1.62-4.357 2.523l0.12-0.077c0.223-1.339 0.511-2.503 0.878-3.631l-0.049 0.175zM14.348 8.923c1.266 0.561 2.296 1.094 3.292 1.678l-0.154-0.083c1.050 0.606 2.037 1.251 2.952 1.922 0.122 1.127 0.189 2.304 0.189 3.516s-0.066 2.389-0.189 3.516c-0.836 0.619-1.8 1.254-2.797 1.837l-0.154 0.083c-0.843 0.502-1.873 1.035-2.934 1.513l-0.206 0.083c-1.266-0.561-2.296-1.094-3.293-1.678l0.153 0.083c-1.151-0.667-2.114-1.301-3.040-1.983l0.090 0.063c-0.12-1.052-0.189-2.272-0.189-3.507 0-0.003 0-0.007 0-0.010v0.001c0-1.212 0.066-2.39 0.189-3.517 0.836-0.619 1.799-1.254 2.796-1.838l0.154-0.083c0.843-0.501 1.873-1.034 2.934-1.512l0.206-0.083zM14.434 10.841l-3.648 2.251 3.648 2.252 3.649-2.252-3.649-2.251zM6.882 13.509c-0.055 0.732-0.086 1.585-0.086 2.446s0.031 1.714 0.093 2.559l-0.007-0.113c-0.938-0.772-1.78-1.572-2.563-2.428l-0.017-0.019c0.8-0.874 1.643-1.674 2.538-2.412l0.042-0.034zM21.816 13.509c0.937 0.772 1.779 1.572 2.562 2.428l0.017 0.019c-0.8 0.874-1.642 1.674-2.537 2.412l-0.042 0.034c0.055-0.732 0.086-1.585 0.086-2.446s-0.031-1.714-0.093-2.559l0.007 0.113zM9.964 14.083v4.446l3.831 2.364v-4.445l-3.831-2.365zM18.901 14.085l-3.831 2.364v4.444l3.831-2.365v-4.444zM3.471 16.938c1.011 1.103 2.216 2.193 3.583 3.23 0.214 1.702 0.556 3.29 1.005 4.717-0.241 0.035-0.478 0.065-0.71 0.088-1.453 0.145-2.721 0.057-3.694-0.238-0.975-0.295-1.64-0.777-2.022-1.438s-0.466-1.479-0.234-2.47 0.788-2.132 1.64-3.318c0.169-0.236 0.31-0.422 0.455-0.604l-0.025 0.033zM25.226 16.938c0.151 0.191 0.295 0.382 0.431 0.571 0.852 1.186 1.41 2.326 1.641 3.318s0.147 1.808-0.235 2.47c-0.382 0.662-1.047 1.142-2.022 1.438-0.973 0.295-2.24 0.383-3.693 0.238-0.237-0.024-0.474-0.053-0.709-0.087 0.449-1.428 0.791-3.017 1.005-4.719 1.367-1.037 2.571-2.126 3.582-3.229zM20.201 21.199c-0.223 1.339-0.511 2.504-0.878 3.632l0.049-0.175c-1.337-0.296-2.476-0.644-3.578-1.068l0.169 0.057c1.648-0.807 3.035-1.621 4.358-2.523l-0.12 0.077zM8.497 21.2c1.202 0.826 2.589 1.64 4.034 2.356l0.202 0.091c-0.932 0.367-2.072 0.714-3.243 0.979l-0.165 0.031c-0.318-0.953-0.606-2.118-0.808-3.311l-0.020-0.146zM14.386 21.258l0.047 0.029 0.047-0.029h-0.093zM14.348 24.378c1.581 0.666 3.128 1.164 4.589 1.489-0.089 0.222-0.182 0.442-0.279 0.659-0.601 1.331-1.311 2.384-2.053 3.081s-1.492 1.031-2.256 1.031c-0.764 0-1.513-0.335-2.256-1.031s-1.453-1.749-2.053-3.081c-0.098-0.218-0.191-0.437-0.279-0.659 1.461-0.325 3.007-0.823 4.588-1.488z"></path>
        </symbol>
        <symbol id="icon-arrow" viewBox="0 0 38 32">
            <path fill="#011c44" style="fill: var(--color1, #011c44)" d="M0.625 17.218c-0.386-0.386-0.625-0.919-0.625-1.508s0.239-1.122 0.625-1.508l13.577-13.577c0.39-0.415 0.942-0.673 1.555-0.673 1.178 0 2.133 0.955 2.133 2.133 0 0.613-0.259 1.166-0.673 1.555l-0.001 0.001-12.066 12.068 12.068 12.068c0.402 0.388 0.651 0.932 0.651 1.534 0 1.178-0.955 2.133-2.133 2.133-0.602 0-1.146-0.249-1.534-0.651l-0.001-0.001-13.577-13.577zM37.892 17.843h-35.759v-4.267h35.759v4.267z"></path>
        </symbol>
        <symbol id="icon-facebook" viewBox="0 0 19 32">
            <path fill="#011c44" style="fill: var(--color1, #011c44)" d="M18.009 0.238c-1.349-0.151-2.914-0.238-4.499-0.238-0.046 0-0.091 0-0.137 0l0.007-0c-5.125 0-8.31 3.264-8.31 8.52v3.566h-4.307c0 0 0 0 0 0-0.421 0-0.762 0.341-0.762 0.762 0 0 0 0.001 0 0.001v-0 5.867c0.001 0.421 0.342 0.761 0.762 0.761 0 0 0 0 0 0h4.305v11.766c0.001 0.42 0.342 0.76 0.762 0.76 0 0 0.001 0 0.001 0h6.063c0 0 0.001 0 0.001 0 0.42 0 0.761-0.341 0.761-0.761 0 0 0 0 0 0v0-11.766h4.291c0 0 0.001 0 0.001 0 0.386 0 0.705-0.287 0.755-0.659l0-0.004 0.757-5.867c0.004-0.030 0.007-0.065 0.007-0.101 0-0.42-0.34-0.76-0.76-0.76-0.001 0-0.002 0-0.002 0h-5.049v-2.984c0-1.478 0.297-2.095 2.145-2.095h3.108c0.421-0.001 0.761-0.342 0.761-0.762 0 0 0 0 0 0v0-5.25c0-0 0-0.001 0-0.001 0-0.386-0.287-0.705-0.659-0.755l-0.004-0zM17.148 5.481l-2.347 0.001c-3.287 0-3.669 2.067-3.669 3.62v3.749c0.001 0.42 0.341 0.761 0.761 0.761h4.947l-0.562 4.343h-4.383c-0 0-0.001 0-0.001 0-0.42 0-0.761 0.341-0.761 0.761 0 0 0 0.001 0 0.001v-0 11.762h-4.538v-11.762c0-0.421-0.341-0.762-0.762-0.762v0h-4.303v-4.343h4.303c0 0 0.001 0 0.001 0 0.42 0 0.761-0.341 0.761-0.761 0 0 0 0 0 0v0-4.332c0-4.379 2.537-6.995 6.786-6.995 1.537 0 2.926 0.085 3.767 0.158v3.799z"></path>
        </symbol>
        <symbol id="icon-instagram" viewBox="0 0 32 32">
            <path fill="#011c44" style="fill: var(--color1, #011c44)" d="M15.682 8.321c-4.065 0-7.361 3.296-7.361 7.361s3.296 7.361 7.361 7.361v0c4.065 0 7.361-3.296 7.361-7.361s-3.296-7.361-7.361-7.361v0zM15.682 21.123c-3.005 0-5.441-2.436-5.441-5.441s2.436-5.441 5.441-5.441c3.005 0 5.441 2.436 5.441 5.441v0c-0.009 3.001-2.44 5.431-5.44 5.441h-0.001zM22.724 0h-14.082c-4.772 0-8.641 3.869-8.641 8.641v0 14.082c0 4.773 3.869 8.641 8.641 8.641v0h14.082c4.773 0 8.641-3.869 8.641-8.641v0-14.082c0-4.772-3.869-8.641-8.641-8.641v0zM29.445 22.724c0 3.712-3.009 6.721-6.721 6.721v0h-14.082c-3.712 0-6.721-3.009-6.721-6.721v0-14.082c0-3.712 3.009-6.721 6.721-6.721v0h14.082c3.712 0 6.721 3.009 6.721 6.721v0 14.082zM25.604 7.361c0 0.884-0.716 1.6-1.6 1.6s-1.6-0.716-1.6-1.6v0c0-0.884 0.716-1.6 1.6-1.6s1.6 0.716 1.6 1.6v0z"></path>
        </symbol>
        <symbol id="icon-whyus3" viewBox="0 0 38 32">
            <path d="M37.351 7.45c-0.316-0.291-0.719-0.493-1.165-0.565l-0.013-0.002c-0.096-0.015-0.206-0.024-0.318-0.024-0.348 0-0.676 0.082-0.967 0.228l0.012-0.006-8.417 4.107c-0.043 0.026-0.096 0.042-0.152 0.042-0.033 0-0.066-0.005-0.096-0.016l0.002 0.001c-0.043-0.015-0.079-0.037-0.11-0.065l0 0c-0.032-0.030-0.059-0.066-0.077-0.106l-0.001-0.002-4.917-9.717c-0.198-0.4-0.488-0.727-0.843-0.965l-0.009-0.006c-0.333-0.222-0.742-0.355-1.182-0.356h-0c-0.44 0.001-0.849 0.134-1.19 0.361l0.008-0.005c-0.357 0.234-0.652 0.569-0.851 0.971l-4.917 9.717c-0.020 0.042-0.047 0.078-0.079 0.108l-0 0c-0.031 0.028-0.067 0.051-0.108 0.065l-0.002 0.001c-0.028 0.010-0.060 0.016-0.094 0.016-0.056 0-0.108-0.016-0.152-0.043l0.001 0.001-8.418-4.107c-0.281-0.144-0.613-0.229-0.965-0.229-0.108 0-0.215 0.008-0.318 0.024l0.012-0.001c-0.459 0.071-0.861 0.273-1.179 0.565l0.002-0.001c-0.335 0.309-0.587 0.702-0.723 1.146l-0.005 0.018c-0.077 0.244-0.121 0.525-0.121 0.815 0 0.211 0.023 0.417 0.067 0.615l-0.004-0.019 4.25 19.857c0.071 0.336 0.204 0.652 0.391 0.929s0.422 0.51 0.692 0.684c0.356 0.24 0.765 0.367 1.183 0.367 0.213-0.003 0.427-0.033 0.633-0.092 3.562-1.128 7.658-1.778 11.906-1.778 4.227 0 8.303 0.643 12.136 1.838l-0.289-0.078c0.302 0.096 0.62 0.124 0.933 0.081s0.615-0.155 0.889-0.329c0.272-0.175 0.509-0.409 0.698-0.688s0.323-0.596 0.396-0.933l4.234-19.858c0.044-0.184 0.069-0.396 0.069-0.614 0-0.282-0.042-0.554-0.12-0.81l0.005 0.020c-0.137-0.461-0.387-0.854-0.718-1.16l-0.002-0.002zM36.184 9.503l-4.25 19.857c-0.023 0.097-0.076 0.179-0.149 0.238l-0.001 0.001c-0.053 0.029-0.115 0.046-0.182 0.046-0.030 0-0.059-0.003-0.087-0.010l0.003 0c-3.715-1.175-7.987-1.852-12.418-1.852s-8.703 0.677-12.72 1.933l0.302-0.081c-0.027 0.009-0.059 0.014-0.092 0.014-0.064 0-0.123-0.020-0.172-0.053l0.001 0.001c-0.040-0.027-0.073-0.061-0.099-0.1l-0.001-0.001c-0.025-0.039-0.044-0.084-0.054-0.133l-0-0.002-4.251-19.857c-0.004-0.021-0.006-0.046-0.006-0.071 0-0.091 0.029-0.176 0.078-0.245l-0.001 0.001c0.031-0.042 0.070-0.077 0.115-0.102l0.002-0.001c0.042-0.024 0.092-0.039 0.145-0.041l0.001-0 0.133 0.036 8.435 4.126c0.277 0.142 0.604 0.225 0.95 0.225 0.265 0 0.518-0.048 0.752-0.137l-0.015 0.005c0.554-0.204 1.016-0.629 1.296-1.192l4.918-9.718c0.026-0.058 0.065-0.105 0.114-0.14l0.001-0.001c0.047-0.032 0.105-0.052 0.167-0.052s0.12 0.019 0.168 0.052l-0.001-0.001c0.051 0.035 0.090 0.083 0.116 0.138l0.001 0.002 4.917 9.717c0.28 0.564 0.743 0.989 1.296 1.193s1.156 0.171 1.687-0.092l8.435-4.125c0.040-0.020 0.087-0.032 0.137-0.032 0.083 0 0.158 0.033 0.213 0.087l-0-0c0.049 0.044 0.086 0.099 0.106 0.163l0.001 0.003c0.012 0.036 0.018 0.077 0.018 0.12 0 0.029-0.003 0.057-0.009 0.085l0-0.003zM25.433 23.438c-0.028 0.276-0.148 0.519-0.329 0.702l0-0c-0.185 0.183-0.423 0.284-0.671 0.287h-0.1c-1.57-0.184-3.39-0.289-5.234-0.289s-3.663 0.105-5.453 0.309l0.219-0.020c-0.031 0.004-0.068 0.006-0.105 0.006-0.242 0-0.462-0.092-0.629-0.242l0.001 0.001c-0.204-0.185-0.34-0.443-0.368-0.732l-0-0.005c-0.003-0.030-0.004-0.065-0.004-0.101 0-0.265 0.086-0.51 0.232-0.709l-0.002 0.003c0.169-0.227 0.411-0.371 0.675-0.404 1.631-0.201 3.519-0.316 5.434-0.316s3.803 0.115 5.657 0.338l-0.224-0.022c0.26 0.033 0.5 0.175 0.668 0.396s0.251 0.507 0.232 0.796z"></path>
        </symbol>
        <symbol id="icon-phone" viewBox="0 0 28 32">
            <path fill="#011c44" style="fill: var(--color1, #011c44)" d="M25.768 22.832l-0.179-0.222c-1.416-1.791-2.601-2.723-3.616-2.845-0.878-0.12-1.727 0.486-2.631 1.112l-0.965 0.603c-0.095 0.050-0.206 0.096-0.322 0.132l-0.015 0.004c-0.565 0.16-1.989 0.253-2.796-0.485-0.939-0.858-2.395-2.43-3.529-3.804-1.082-1.422-2.271-3.195-2.892-4.311-0.524-0.946-0.086-2.268 0.207-2.759 0.068-0.107 0.139-0.2 0.219-0.286l-0.001 0.001 0.851-0.786c0.012-0.012 0.018-0.028 0.029-0.039 0.008-0.008 0.022-0.005 0.031-0.012 0.769-0.648 1.563-1.315 1.672-2.173 0.127-1.008-0.499-2.37-1.918-4.161l-0.173-0.222c-0.878-1.125-2.206-2.829-4.114-2.548-0.751 0.111-1.421 0.368-2.112 0.801-0.006 0.004-0.010 0.012-0.017 0.017-0.005 0.004-0.012 0.004-0.018 0.008l-0.962 0.712c-0.010 0.006-0.015 0.019-0.025 0.027-0.007 0.006-0.018 0.008-0.026 0.014-0.111 0.094-0.223 0.19-0.333 0.289-0.976 0.87-3.089 3.397-1.648 8.068 0.93 3.018 2.849 6.539 5.563 10.203l-0.026 0.022 1.496 1.863 0.012-0.009c2.942 3.479 5.936 6.17 8.679 7.798 1.83 1.088 3.43 1.447 4.746 1.447 1.731 0 2.972-0.623 3.594-1.027l0.392-0.261c0.043-0.031 0.074-0.072 0.106-0.111l0.852-0.642c0.010-0.008 0.015-0.019 0.025-0.027 0.004-0.004 0.011-0.003 0.017-0.007 0.606-0.553 1.026-1.133 1.317-1.819 0.756-1.761-0.597-3.448-1.492-4.563zM26.248 26.964c-0.227 0.534-0.558 0.988-1.038 1.429l-1.268 0.954c-1.148 0.746-3.603 1.668-7.168-0.449-2.743-1.628-5.763-4.381-8.734-7.962l-0.805-1.016c-2.798-3.711-4.767-7.265-5.696-10.277-1.208-3.916 0.314-6.017 1.332-6.923 0.103-0.093 0.206-0.181 0.31-0.267l0.003-0.004 0.924-0.684c0.479-0.319 1.046-0.546 1.657-0.641l0.024-0.003c1.279-0.192 2.32 1.156 3.084 2.137l0.179 0.227c1.586 2 1.739 2.951 1.689 3.339-0.055 0.432-0.71 0.983-1.288 1.469l-0.082 0.069-0.006 0.010-0.012 0.006-0.88 0.814c-0.006 0.005-0.008 0.012-0.014 0.019-0.005 0.007-0.017 0.010-0.022 0.017-0.125 0.138-0.24 0.29-0.34 0.451l-0.008 0.013c-0.495 0.827-0.961 2.537-0.225 3.86 0.643 1.156 1.867 2.983 2.992 4.458 1.175 1.426 2.674 3.046 3.646 3.933 0.728 0.664 1.741 0.888 2.618 0.888 0.469 0 0.9-0.065 1.226-0.157 0.207-0.062 0.383-0.134 0.552-0.219l-0.019 0.009c0.010-0.006 0.017-0.015 0.027-0.023 0.006-0.002 0.014-0.001 0.021-0.005l1.020-0.639c0.033-0.022 0.056-0.052 0.083-0.078l0.012 0.014c0.63-0.437 1.346-0.95 1.796-0.874 0.396 0.047 1.301 0.43 2.889 2.436l0.183 0.23c0.774 0.964 1.834 2.286 1.339 3.441z"></path>
        </symbol>
    </defs>
</svg>
